<?xml version="1.0" encoding="UTF-8" standalone="no"?>
<!-- Created with Inkscape (http://www.inkscape.org/) -->

<svg
   width="210mm"
   height="297mm"
   viewBox="0 0 210 297"
   version="1.1"
   id="svg1"
   xml:space="preserve"
   inkscape:version="1.3.2 (091e20ef0f, 2023-11-25, custom)"
   sodipodi:docname="neel_logo.svg"
   inkscape:export-filename="../Pictures/logo/neel_logo.png"
   inkscape:export-xdpi="260.01468"
   inkscape:export-ydpi="260.01468"
   xmlns:inkscape="http://www.inkscape.org/namespaces/inkscape"
   xmlns:sodipodi="http://sodipodi.sourceforge.net/DTD/sodipodi-0.dtd"
   xmlns="http://www.w3.org/2000/svg"
   xmlns:svg="http://www.w3.org/2000/svg"><sodipodi:namedview
     id="namedview1"
     pagecolor="#ffffff"
     bordercolor="#000000"
     borderopacity="0.25"
     inkscape:showpageshadow="2"
     inkscape:pageopacity="0.0"
     inkscape:pagecheckerboard="0"
     inkscape:deskcolor="#d1d1d1"
     inkscape:document-units="mm"
     inkscape:zoom="1"
     inkscape:cx="329"
     inkscape:cy="706.5"
     inkscape:window-width="942"
     inkscape:window-height="1016"
     inkscape:window-x="0"
     inkscape:window-y="0"
     inkscape:window-maximized="1"
     inkscape:current-layer="svg1" /><defs
     id="defs1" /><g
     inkscape:label="Layer 1"
     inkscape:groupmode="layer"
     id="layer1" /><g
     id="g3"
     transform="rotate(-15,99.308023,144.3102)"><g
       inkscape:groupmode="layer"
       id="layer2"
       inkscape:label="Layer 2"
       style="display:inline"><path
         d="m 67.562177,145.31872 c -3.742682,9.17287 -5.998794,15.17297 -10.164329,24.07395 2.554211,2.70786 5.688873,5.85959 10.768409,9.42105 -5.473503,-2.25217 -9.192544,-4.51353 -11.997584,-6.86025 -5.33168,11.12297 -13.683765,26.97092 -30.633506,57.42715 13.334444,-7.69022 23.649793,-12.43097 33.286211,-14.24319 -0.413646,-1.77812 -0.64873,-3.70068 -0.630347,-5.70597 l 0.01588,-0.42685 c 0.210098,-8.53593 4.651427,-15.09942 9.910875,-14.65291 5.259454,0.4467 9.347506,7.72963 9.136076,16.26555 a 24.110735,24.110735 0 0 1 -0.537103,4.58445 c 9.520852,1.86216 19.737721,6.59238 32.879101,14.17887 l -7.11765,-13.16634 c -3.480013,-2.69605 -7.108475,-6.20633 -14.511067,-10.00677 5.08873,1.32244 8.732874,2.84708 11.556328,4.55293 C 77.067409,168.94746 75.247287,163.39252 67.546568,145.31867 Z"
         fill="#1793d1"
         fill-rule="evenodd"
         id="path1"
         style="stroke-width:1.31322" /></g><g
       inkscape:groupmode="layer"
       id="g2"
       inkscape:label="Layer 2"
       style="display:inline"
       transform="rotate(180,90.609069,148.16144)"><path
         d="m 71.630357,66.924733 c -3.742682,9.17287 -5.998794,15.17297 -10.164329,24.07395 2.554211,2.707856 5.688873,5.859586 10.768409,9.421037 -5.473503,-2.252161 -9.192544,-4.513521 -11.997584,-6.860241 -5.33168,11.122961 -13.683765,26.970911 -30.633506,57.427141 13.334444,-7.69022 23.649793,-12.43097 33.286211,-14.24319 -0.413646,-1.77812 -0.64873,-3.70068 -0.630347,-5.70597 l 0.01588,-0.42685 c 0.210098,-8.53593 4.651427,-15.09942 9.910875,-14.65291 5.259454,0.4467 9.347506,7.72963 9.136076,16.26555 a 24.110735,24.110735 0 0 1 -0.537103,4.58445 c 9.520852,1.86216 19.737731,6.59238 32.879111,14.17887 l -7.11765,-13.16634 c -3.48002,-2.69605 -7.108485,-6.20633 -14.511077,-10.00677 5.08873,1.32244 8.732877,2.84708 11.556337,4.55293 C 81.135589,90.553473 79.315467,84.998533 71.614748,66.924683 Z"
         fill="#1793d1"
         fill-rule="evenodd"
         id="path2"
         style="stroke-width:1.31322" /></g></g></svg>
