<?xml version="1.0" standalone="no"?>
<!DOCTYPE svg PUBLIC "-//W3C//DTD SVG 20010904//EN"
 "http://www.w3.org/TR/2001/REC-SVG-20010904/DTD/svg10.dtd">
<svg version="1.0" xmlns="http://www.w3.org/2000/svg"
 width="1165.000000pt" height="1165.000000pt" viewBox="0 0 1165.000000 1165.000000"
 preserveAspectRatio="xMidYMid meet">
<metadata>
Created by potrace 1.14, written by Peter Selinger 2001-2017
</metadata>
<g transform="translate(0.000000,1165.000000) scale(0.100000,-0.100000)"
fill="#000000" stroke="none">
<path d="M10849 11562 c-117 -119 -400 -393 -544 -527 -133 -125 -132 -123
-245 -225 -46 -41 -88 -80 -94 -85 -6 -6 -60 -53 -121 -105 -60 -52 -112 -98
-115 -101 -29 -33 -498 -407 -620 -494 -30 -22 -57 -42 -60 -45 -12 -13 -327
-224 -470 -315 -88 -56 -267 -158 -395 -224 -77 -40 -143 -76 -148 -80 -4 -4
10 -43 31 -87 65 -131 139 -330 167 -444 16 -67 55 -259 59 -293 3 -23 9 -67
13 -97 9 -74 9 -368 0 -455 -34 -312 -144 -575 -311 -741 -132 -132 -263 -188
-436 -189 -123 0 -150 4 -250 38 -422 143 -814 663 -976 1297 -35 135 -71 351
-75 445 l-2 50 -366 0 c-324 0 -544 7 -621 20 -14 2 -63 7 -109 10 -47 4 -92
8 -100 10 -9 1 -41 6 -71 9 -30 4 -71 9 -90 11 -19 3 -57 7 -85 10 -27 3 -57
7 -65 10 -8 2 -37 6 -65 10 -27 3 -90 13 -140 21 -49 8 -103 17 -120 20 -16 2
-57 9 -90 15 -33 6 -72 13 -87 16 -15 2 -125 24 -245 49 -120 25 -229 47 -243
50 -149 30 -701 163 -989 239 -74 20 -136 33 -139 30 -7 -6 -7 -10 -16 -91 -4
-32 -9 -76 -11 -96 -3 -21 -7 -57 -10 -80 -3 -24 -7 -59 -10 -78 -4 -32 -8
-65 -20 -162 -3 -21 -7 -57 -10 -80 -3 -24 -8 -59 -10 -78 -2 -19 -9 -73 -15
-120 -6 -47 -13 -101 -15 -120 -2 -19 -7 -60 -10 -90 -4 -30 -8 -66 -10 -80
-5 -34 -15 -108 -20 -150 -4 -29 -27 -209 -40 -300 -2 -14 -6 -47 -10 -75 -4
-27 -8 -61 -10 -75 -2 -14 -7 -45 -10 -70 -3 -25 -12 -85 -20 -135 -8 -49 -17
-109 -20 -133 -3 -24 -7 -53 -10 -65 -2 -12 -7 -40 -10 -62 -3 -22 -7 -47 -10
-55 -2 -8 -6 -35 -9 -60 -3 -25 -12 -81 -20 -125 -8 -44 -18 -98 -21 -120 -4
-22 -10 -62 -15 -90 -4 -27 -7 -50 -6 -50 0 -1 27 -17 58 -38 32 -20 60 -37
63 -37 2 0 35 -19 72 -42 268 -164 716 -380 1002 -484 86 -31 136 -55 86 -41
-11 3 -45 9 -75 12 -50 6 -187 27 -250 40 -22 4 -72 14 -160 31 -14 3 -41 9
-60 14 -19 5 -47 11 -61 14 -90 15 -320 84 -489 146 -128 47 -131 49 -185 74
-36 18 -52 21 -56 13 -4 -7 -16 -64 -28 -127 -52 -275 -238 -1172 -277 -1335
-3 -11 -7 -31 -10 -45 -3 -14 -16 -74 -30 -135 -14 -60 -27 -119 -30 -130 -2
-11 -12 -58 -23 -105 -10 -47 -35 -157 -55 -245 -20 -88 -40 -178 -46 -200
-35 -145 -62 -263 -66 -283 -2 -12 -14 -62 -25 -110 -12 -48 -23 -95 -25 -105
-2 -10 -5 -26 -8 -35 -3 -9 -7 -28 -10 -42 -3 -14 -10 -43 -15 -65 -13 -50
-79 -325 -85 -357 -3 -12 -19 -81 -36 -153 -17 -71 -33 -137 -35 -145 -1 -8
-8 -35 -15 -60 -7 -25 -14 -52 -15 -60 -15 -68 -93 -393 -200 -825 -48 -192
-88 -357 -90 -365 -4 -16 -74 -306 -81 -330 -2 -8 -8 -35 -15 -60 -6 -25 -12
-52 -15 -60 -7 -28 -26 -105 -29 -120 -2 -8 -29 -116 -60 -240 -31 -124 -59
-234 -61 -245 -2 -11 -30 -122 -62 -248 -32 -125 -56 -229 -54 -232 2 -2 91
81 196 184 105 104 212 209 237 233 26 23 107 100 180 169 74 69 186 173 249
229 63 57 117 106 120 110 3 3 37 32 75 65 39 33 72 62 75 65 5 5 118 102 155
132 11 9 63 52 115 95 87 73 367 290 434 338 16 11 40 30 55 41 29 24 332 227
431 290 111 70 309 184 440 251 69 36 129 68 133 72 4 5 -10 43 -31 87 -160
322 -244 684 -246 1054 -2 307 38 506 143 725 102 212 247 351 434 417 92 33
283 32 387 -1 165 -51 310 -142 455 -285 108 -107 149 -157 228 -274 31 -48
62 -92 67 -98 14 -18 115 -221 149 -299 77 -181 157 -473 176 -650 4 -32 17
-163 18 -180 1 -20 7 -20 356 -20 307 0 521 -7 628 -20 15 -2 66 -6 112 -10
47 -4 92 -8 102 -10 10 -2 46 -6 81 -10 207 -20 721 -106 1033 -172 66 -14
129 -27 140 -29 17 -3 119 -25 135 -29 3 -1 21 -5 40 -9 71 -15 159 -36 345
-82 105 -25 199 -48 210 -50 11 -3 25 -6 30 -8 30 -9 347 -90 387 -100 32 -7
32 -7 53 184 4 30 8 66 10 80 4 32 17 135 29 240 3 25 8 61 11 80 2 19 7 58
10 85 3 28 7 61 10 75 2 14 7 50 10 81 3 31 7 65 9 75 2 11 7 49 10 86 4 37 9
77 11 90 2 13 11 80 20 149 8 69 17 134 19 145 2 10 7 46 10 79 8 69 15 119
21 155 2 14 7 45 10 70 4 25 8 57 11 71 2 15 6 47 9 70 3 24 10 73 16 109 6
36 12 74 14 85 8 60 17 119 30 195 8 47 17 101 20 120 3 19 16 98 29 175 13
77 23 141 22 141 -5 5 -157 97 -236 142 -152 88 -265 148 -420 224 -201 97
-229 110 -450 200 -107 43 -181 77 -165 74 17 -3 50 -8 75 -11 25 -3 72 -11
105 -16 33 -6 69 -12 80 -14 22 -2 174 -31 215 -40 14 -4 36 -8 50 -11 14 -3
77 -19 140 -35 63 -16 125 -32 136 -34 54 -12 310 -102 411 -145 96 -41 113
-45 117 -31 3 9 14 63 26 121 27 140 28 146 41 215 17 91 16 86 63 315 25 118
47 226 50 240 5 30 94 437 101 465 2 11 18 85 36 165 17 80 33 154 35 165 3
11 7 29 9 40 3 11 20 88 39 171 19 83 37 162 40 175 3 13 7 33 10 44 17 73 28
122 31 135 2 8 29 125 60 260 31 135 58 252 60 260 2 8 10 42 18 75 9 33 18
71 21 85 6 35 34 155 52 220 8 30 24 96 35 145 26 114 21 91 70 295 23 96 45
191 50 210 14 64 167 691 224 920 31 124 58 233 60 242 7 35 166 675 175 708
18 61 199 800 197 799 -1 0 -41 -39 -88 -87z m-7944 -2432 c39 -41 108 -113
152 -160 45 -47 96 -101 113 -120 18 -19 94 -100 170 -180 76 -80 152 -161
170 -180 110 -119 178 -183 214 -199 556 -250 805 -349 1131 -449 132 -41 443
-122 477 -125 10 -1 18 -4 18 -8 0 -9 -448 4 -535 16 -16 3 -57 7 -90 10 -56
5 -233 30 -281 39 -12 2 -37 7 -55 10 -19 3 -87 19 -152 35 l-119 29 35 -37
c99 -105 131 -138 228 -243 58 -62 118 -126 133 -143 25 -27 201 -214 281
-299 17 -17 57 -61 90 -96 33 -36 94 -102 135 -146 85 -91 290 -311 305 -328
6 -6 64 -70 130 -141 66 -71 125 -135 130 -141 6 -6 52 -56 103 -111 51 -55
102 -111 113 -124 11 -13 42 -46 68 -74 81 -86 316 -344 448 -492 34 -38 74
-83 90 -100 38 -41 83 -91 178 -198 44 -50 82 -92 85 -95 3 -3 55 -61 115
-130 61 -69 112 -127 115 -130 3 -3 34 -39 70 -80 36 -41 67 -77 71 -80 7 -7
414 -482 474 -555 28 -33 52 -62 55 -65 6 -5 322 -389 374 -454 17 -21 41 -51
53 -65 11 -15 118 -150 237 -301 119 -151 222 -282 229 -290 18 -22 247 -316
298 -382 24 -31 73 -94 108 -140 36 -45 67 -85 70 -88 3 -3 15 -16 25 -30 31
-41 -269 269 -489 505 -21 22 -72 76 -114 120 -42 45 -140 149 -219 232 -78
82 -150 159 -160 170 -19 23 -450 216 -717 323 -313 124 -747 257 -962 294 -7
1 -15 4 -17 7 -11 10 475 -5 536 -16 11 -3 54 -7 95 -10 41 -3 85 -7 97 -10
11 -3 35 -7 51 -9 94 -12 141 -20 245 -42 63 -14 137 -32 164 -40 l48 -14 -48
53 c-27 28 -53 57 -59 63 -5 6 -58 62 -117 125 -58 63 -126 135 -150 160 -24
25 -97 103 -163 174 -66 71 -129 138 -140 150 -11 11 -74 79 -140 150 -66 71
-129 139 -140 151 -20 21 -188 201 -305 328 -36 39 -98 107 -139 151 -164 177
-189 204 -276 299 -49 55 -99 109 -110 120 -11 12 -63 69 -115 126 -52 57
-104 114 -115 126 -11 12 -51 57 -90 99 -38 43 -75 83 -80 89 -6 6 -51 56
-100 111 -83 92 -111 123 -174 194 -12 14 -35 40 -50 56 -15 17 -69 77 -120
135 -52 58 -108 121 -125 140 -17 19 -58 67 -91 105 -33 39 -65 75 -71 80 -6
6 -35 39 -65 75 -30 36 -57 67 -60 70 -9 8 -358 417 -409 480 -25 30 -48 57
-51 60 -5 5 -331 403 -404 495 -22 28 -45 57 -52 65 -12 14 -303 384 -361 459
-136 174 -417 533 -470 601 -37 47 -69 88 -70 93 -3 7 64 -64 243 -253z"/>
</g>
</svg>
